<?xml version="1.0" standalone="no"?>
<!DOCTYPE svg PUBLIC "-//W3C//DTD SVG 20010904//EN"
 "http://www.w3.org/TR/2001/REC-SVG-20010904/DTD/svg10.dtd">
<svg version="1.0" xmlns="http://www.w3.org/2000/svg"
 width="500.000000pt" height="500.000000pt" viewBox="0 0 500.000000 500.000000"
 preserveAspectRatio="xMidYMid meet">
<metadata>
Created by potrace 1.14, written by Peter Selinger 2001-2017
</metadata>
<g transform="translate(0.000000,500.000000) scale(0.100000,-0.100000)"
fill="#000000" stroke="none">
<path d="M3626 4245 c-120 -33 -282 -146 -388 -271 -154 -180 -324 -468 -448
-759 -44 -102 -64 -134 -76 -122 -8 8 19 123 126 532 63 241 110 462 110 516
0 25 -43 69 -68 69 -10 0 -26 -6 -35 -12 -33 -25 -275 -805 -397 -1283 -74
-291 -111 -418 -127 -436 -10 -12 -38 -18 -101 -22 -129 -8 -202 -44 -202 -99
0 -47 53 -88 157 -122 28 -9 56 -23 63 -31 11 -14 -23 -171 -110 -500 -44
-167 -67 -290 -76 -410 -6 -69 -4 -83 12 -103 25 -30 86 -40 118 -18 28 18 31
26 87 266 53 228 108 426 170 606 78 229 88 241 160 195 66 -42 169 -155 235
-256 78 -122 255 -418 333 -560 125 -225 222 -351 346 -450 87 -69 155 -95
262 -102 93 -6 126 6 137 52 14 55 -43 88 -111 63 -30 -11 -39 -10 -79 12 -79
41 -178 163 -334 407 -385 604 -462 704 -653 848 -70 52 -68 56 41 117 505
284 1002 829 1176 1292 40 105 78 292 70 340 -18 108 -102 202 -212 236 -73
23 -116 24 -186 5z m187 -97 c9 -7 22 -35 29 -61 32 -123 -88 -449 -261 -705
-158 -235 -486 -583 -691 -734 -159 -116 -231 -165 -257 -173 -20 -6 -23 -3
-23 23 0 34 74 226 160 412 34 74 95 210 134 302 207 477 503 835 766 925 74
25 119 29 143 11z m-1536 -1794 c8 -20 -13 -34 -54 -34 -45 0 -51 18 -11 35
43 19 57 18 65 -1z"/>
<path d="M1715 4194 c-11 -2 -45 -9 -75 -15 -221 -44 -380 -280 -380 -564 0
-176 60 -425 183 -756 76 -206 118 -339 111 -351 -3 -4 -11 -8 -18 -8 -8 0
-71 -18 -142 -41 -496 -158 -727 -432 -675 -800 31 -217 118 -383 241 -461 83
-53 166 -71 298 -66 100 4 128 9 194 35 262 104 437 366 438 656 0 146 -35
372 -87 550 -14 49 -21 92 -17 97 5 4 104 30 219 59 304 75 315 78 315 100 0
46 -73 41 -334 -19 -119 -28 -223 -50 -230 -50 -8 0 -23 23 -34 53 -118 317
-182 513 -229 707 -23 95 -25 119 -20 255 5 161 18 217 72 308 32 55 108 128
164 156 60 31 159 54 204 48 149 -20 184 -266 67 -476 -35 -64 -37 -86 -9
-101 67 -36 188 118 220 280 22 111 -22 230 -111 300 -95 75 -265 124 -365
104z m-115 -1826 c42 -198 54 -308 55 -488 0 -206 -8 -251 -71 -370 -51 -98
-116 -174 -196 -230 -153 -107 -262 -101 -372 21 -119 132 -184 394 -141 564
48 190 191 351 392 442 50 23 296 111 315 112 3 1 11 -23 18 -51z"/>
</g>
</svg>
